<?xml version="1.0" encoding="UTF-8"?>
<svg id="Layer_1" xmlns="http://www.w3.org/2000/svg" version="1.1" viewBox="0 0 256 256">
  <!-- Generator: Adobe Illustrator 30.1.0, SVG Export Plug-In . SVG Version: 2.1.1 Build 136)  -->
  <defs>
    <style>
      .st0 {
        fill: #242938;
      }

      .st1, .st2 {
        fill: #0080ff;
      }

      .st2 {
        fill-rule: evenodd;
      }
    </style>
  </defs>
  <rect class="st0" x="0" y="0" width="256" height="256" rx="60" ry="60"/>
  <g>
    <path class="st1" d="M128,218v-34.88c36.97,0,65.64-36.66,51.46-75.51-5.19-14.29-16.73-25.83-31.12-31.02-38.9-14.14-75.56,14.44-75.56,51.41h-34.78c0-58.88,56.95-104.85,118.68-85.52,26.95,8.49,48.46,29.9,56.85,56.85,19.32,61.73-26.64,118.68-85.52,118.68"/>
    <path class="st2" d="M128.1,183.32h-34.78v-34.83h34.78v34.83Z"/>
    <path class="st2" d="M93.32,209.91h-26.64v-26.59h26.64v26.59Z"/>
    <path class="st2" d="M66.68,183.32h-22.37v-22.37h22.37v22.37Z"/>
  </g>
</svg>